<?xml version="1.0" encoding="UTF-8" standalone="no"?>
<!-- Created with Inkscape (http://www.inkscape.org/) -->

<svg
   width="210mm"
   height="297mm"
   viewBox="0 0 210 297"
   version="1.1"
   id="svg1"
   inkscape:version="1.3.2 (091e20e, 2023-11-25, custom)"
   sodipodi:docname="mies.svg"
   xmlns:inkscape="http://www.inkscape.org/namespaces/inkscape"
   xmlns:sodipodi="http://sodipodi.sourceforge.net/DTD/sodipodi-0.dtd"
   xmlns="http://www.w3.org/2000/svg"
   xmlns:svg="http://www.w3.org/2000/svg">
  <sodipodi:namedview
     id="namedview1"
     pagecolor="#ffffff"
     bordercolor="#000000"
     borderopacity="0.25"
     inkscape:showpageshadow="2"
     inkscape:pageopacity="0.0"
     inkscape:pagecheckerboard="0"
     inkscape:deskcolor="#d1d1d1"
     inkscape:document-units="mm"
     inkscape:zoom="2.0938813"
     inkscape:cx="235.68672"
     inkscape:cy="573.81477"
     inkscape:window-width="1920"
     inkscape:window-height="1027"
     inkscape:window-x="-8"
     inkscape:window-y="-8"
     inkscape:window-maximized="1"
     inkscape:current-layer="layer1" />
  <defs
     id="defs1">
    <inkscape:path-effect
       effect="bspline"
       id="path-effect17"
       is_visible="true"
       lpeversion="1.3"
       weight="33.333333"
       steps="2"
       helper_size="0"
       apply_no_weight="true"
       apply_with_weight="true"
       only_selected="false"
       uniform="false" />
    <inkscape:path-effect
       effect="bspline"
       id="path-effect16"
       is_visible="true"
       lpeversion="1.3"
       weight="33.333333"
       steps="2"
       helper_size="0"
       apply_no_weight="true"
       apply_with_weight="true"
       only_selected="false"
       uniform="false" />
    <inkscape:path-effect
       effect="bspline"
       id="path-effect15"
       is_visible="true"
       lpeversion="1.3"
       weight="33.333333"
       steps="2"
       helper_size="0"
       apply_no_weight="true"
       apply_with_weight="true"
       only_selected="false"
       uniform="false" />
    <inkscape:path-effect
       effect="bspline"
       id="path-effect14"
       is_visible="true"
       lpeversion="1.3"
       weight="33.333333"
       steps="2"
       helper_size="0"
       apply_no_weight="true"
       apply_with_weight="true"
       only_selected="false"
       uniform="false" />
    <inkscape:path-effect
       effect="bspline"
       id="path-effect13"
       is_visible="true"
       lpeversion="1.3"
       weight="33.333333"
       steps="2"
       helper_size="0"
       apply_no_weight="true"
       apply_with_weight="true"
       only_selected="false"
       uniform="false" />
    <inkscape:path-effect
       effect="bspline"
       id="path-effect12"
       is_visible="true"
       lpeversion="1.3"
       weight="33.333333"
       steps="2"
       helper_size="0"
       apply_no_weight="true"
       apply_with_weight="true"
       only_selected="false"
       uniform="false" />
    <inkscape:path-effect
       effect="bspline"
       id="path-effect11"
       is_visible="true"
       lpeversion="1.3"
       weight="33.333333"
       steps="2"
       helper_size="0"
       apply_no_weight="true"
       apply_with_weight="true"
       only_selected="false"
       uniform="false" />
    <inkscape:path-effect
       effect="bspline"
       id="path-effect10"
       is_visible="true"
       lpeversion="1.3"
       weight="33.333333"
       steps="2"
       helper_size="0"
       apply_no_weight="true"
       apply_with_weight="true"
       only_selected="false"
       uniform="false" />
    <inkscape:path-effect
       effect="bspline"
       id="path-effect9"
       is_visible="true"
       lpeversion="1.3"
       weight="33.333333"
       steps="2"
       helper_size="0"
       apply_no_weight="true"
       apply_with_weight="true"
       only_selected="false"
       uniform="false" />
    <inkscape:path-effect
       effect="bspline"
       id="path-effect8"
       is_visible="true"
       lpeversion="1.3"
       weight="33.333333"
       steps="2"
       helper_size="0"
       apply_no_weight="true"
       apply_with_weight="true"
       only_selected="false"
       uniform="false" />
    <inkscape:path-effect
       effect="bspline"
       id="path-effect7"
       is_visible="true"
       lpeversion="1.3"
       weight="33.333333"
       steps="2"
       helper_size="0"
       apply_no_weight="true"
       apply_with_weight="true"
       only_selected="false"
       uniform="false" />
    <inkscape:path-effect
       effect="bspline"
       id="path-effect6"
       is_visible="true"
       lpeversion="1.3"
       weight="33.333333"
       steps="2"
       helper_size="0"
       apply_no_weight="true"
       apply_with_weight="true"
       only_selected="false"
       uniform="false" />
  </defs>
  <g
     inkscape:label="Taso 1"
     inkscape:groupmode="layer"
     id="layer1">
    <g
       id="g17"
       transform="translate(5.5598504,-11.119701)">
      <rect
         style="fill:#ff6600;fill-rule:evenodd;stroke:#000000;stroke-width:0.499999;stroke-linejoin:bevel;stroke-dasharray:none;stroke-opacity:1"
         id="rect6"
         width="66.586487"
         height="66.465485"
         x="38.413509"
         y="122.82215"
         ry="3.3956952e-17" />
      <path
         style="fill:#ffffff;fill-rule:evenodd;stroke:#000000;stroke-width:0.499999;stroke-linejoin:bevel;stroke-dasharray:none;stroke-opacity:1"
         d="m 38.548713,140.35423 c 0.135203,-0.0149 0.40561,-0.0447 0.645046,-0.10427 0.239437,-0.0596 0.447938,-0.14893 0.879796,-0.34252 0.431858,-0.19359 1.087095,-0.49143 1.995489,-0.86372 0.908393,-0.37229 2.069946,-0.81904 2.978339,-1.16155 0.908392,-0.34251 1.563627,-0.58078 2.367779,-0.87861 0.804152,-0.29784 1.757221,-0.65524 2.442237,-0.89351 0.685017,-0.23826 1.101986,-0.3574 1.504062,-0.47653 0.402076,-0.11913 0.789261,-0.23827 1.429604,-0.38718 0.640343,-0.14892 1.533843,-0.32762 2.114623,-0.44675 0.58078,-0.11914 0.848824,-0.1787 1.325361,-0.23827 0.476536,-0.0596 1.161549,-0.11913 1.697652,-0.1638 0.536103,-0.0447 0.923288,-0.0744 1.950814,3e-5 1.027525,0.0745 2.695395,0.25317 3.633563,0.38719 0.938168,0.13402 1.146669,0.22338 1.32537,0.34251 0.1787,0.11914 0.327615,0.26805 0.565882,0.65524 0.238266,0.38718 0.565883,1.01263 0.729693,1.6083 0.16381,0.59567 0.16381,1.16155 0.16381,1.53385 0,0.37229 0,0.55099 0.02978,0.72969 0.02978,0.1787 0.08935,0.3574 0.134032,0.46164 0.04468,0.10424 0.07449,0.13403 0.08936,0.16379 0.01487,0.0298 0.01487,0.0596 0.02977,0.0894 0.0149,0.0298 0.0447,0.0596 0.05958,0.0893 0.01487,0.0298 0.01487,0.0596 0.04466,0.10421 0.02979,0.0446 0.08935,0.1042 0.148913,0.19355 0.05957,0.0893 0.119131,0.20848 0.238265,0.3425 0.119134,0.13403 0.297836,0.28295 0.506318,0.47654 0.208481,0.19359 0.446749,0.43186 0.908392,0.64035 0.461643,0.20848 1.14666,0.38718 1.861462,0.26804 0.714802,-0.11913 1.459385,-0.5361 2.38267,-1.16155 0.923285,-0.62545 2.025273,-1.45939 3.246391,-2.27843 1.221119,-0.81904 2.561371,-1.62319 3.350632,-2.08483 0.78926,-0.46165 1.027526,-0.58078 1.280684,-0.71481 0.253157,-0.13402 0.521209,-0.28294 1.072203,-0.46164 0.550993,-0.1787 1.38493,-0.38719 2.055055,-0.551 0.670125,-0.1638 1.176442,-0.28294 1.891244,-0.44674 0.714803,-0.16381 1.638089,-0.3723 3.112366,-0.52121 1.474277,-0.14892 3.499548,-0.23827 4.61643,-0.25316 1.116882,-0.0149 1.325356,0.0447 1.578518,0.10424 0.253162,0.0596 0.550988,0.11913 0.878607,0.22337 0.327619,0.10425 0.685018,0.25316 0.908381,0.37228 0.223363,0.11912 0.31274,0.2085 0.402097,0.28296 0.08936,0.0745 0.178691,0.13402 0.282932,0.22337 0.104242,0.0893 0.22338,0.20849 0.536104,0.40208 0.312725,0.19359 0.819042,0.46164 1.250903,0.65523 0.43186,0.19359 0.789259,0.31273 1.22112,0.47654 0.43186,0.16381 0.93818,0.37229 1.236,0.53609 0.29783,0.1638 0.3872,0.28295 0.49144,0.40209 0.10424,0.11913 0.22337,0.23826 0.43185,0.59566 0.20849,0.3574 0.50632,0.95307 0.80416,1.4296 0.29783,0.47654 0.59566,0.83394 0.78925,1.10198 0.19359,0.26804 0.28295,0.44676 0.37227,0.58076 0.0893,0.134 0.17873,0.2234 0.23829,0.34254 0.0596,0.11914 0.0893,0.26806 0.14888,0.58078 0.0596,0.31271 0.14891,0.78925 0.19358,1.17644 0.0447,0.38718 0.0447,0.68502 0.0447,1.04242 0,0.3574 0,0.77437 -0.0745,1.13177 -0.0745,0.3574 -0.22337,0.65523 -0.31272,0.8488 -0.0893,0.19357 -0.11917,0.28297 -0.22343,0.37232 -0.10426,0.0894 -0.28294,0.1787 -0.56588,0.3574 -0.28294,0.1787 -0.67013,0.44675 -0.98285,0.64034 -0.31273,0.19359 -0.551,0.31273 -0.81905,0.46164 -0.26805,0.14892 -0.56588,0.32762 -0.80414,0.46164 -0.23826,0.13402 -0.41698,0.22338 -0.58079,0.34252 -0.16381,0.11913 -0.31272,0.26804 -0.47652,0.38717 -0.1638,0.11913 -0.342522,0.20849 -0.878624,0.44676 -0.536101,0.23826 -1.429603,0.62545 -2.531588,0.8935 -1.101985,0.26805 -2.412454,0.41696 -3.276174,0.50631 -0.863719,0.0893 -1.28069,0.1191 -1.667872,0.14887 -0.387182,0.0298 -0.744587,0.0595 -1.578518,-0.0447 -0.833932,-0.10425 -2.1444,-0.34251 -3.335737,-0.61056 -1.191336,-0.26805 -2.263535,-0.56589 -2.933663,-0.77437 -0.670128,-0.20848 -0.93818,-0.32762 -1.459389,-0.55099 -0.521209,-0.22338 -1.295579,-0.55099 -2.040164,-0.84883 -0.744584,-0.29783 -1.459385,-0.56588 -1.965703,-0.75947 -0.506318,-0.19359 -0.804151,-0.31273 -1.50406,-0.551 -0.699909,-0.23826 -1.801892,-0.59567 -2.427334,-0.81904 -0.625441,-0.22337 -0.774381,-0.31273 -0.982864,-0.41697 -0.208483,-0.10424 -0.476532,-0.22337 -0.670114,-0.32761 -0.193582,-0.10423 -0.312739,-0.1936 -0.461655,-0.29784 -0.148916,-0.10424 -0.327615,-0.22338 -0.565884,-0.49143 -0.238269,-0.26805 -0.536101,-0.68501 -0.789259,-0.99774 -0.253159,-0.31272 -0.461647,-0.52121 -0.565888,-0.64035 -0.104241,-0.11914 -0.104241,-0.14894 -0.134026,-0.16379 -0.02979,-0.0148 -0.08935,-0.0148 -0.148924,-0.0446 -0.05958,-0.0298 -0.119127,-0.0893 -0.178693,-0.13403 -0.05957,-0.0447 -0.119131,-0.0745 -0.208483,-0.16384 -0.08935,-0.0894 -0.208485,-0.23828 -0.312724,-0.25317 -0.10424,-0.0149 -0.193589,0.10424 -0.312724,0.26805 -0.119134,0.16381 -0.26805,0.37229 -0.402076,0.58078 -0.134026,0.20848 -0.253162,0.41697 -0.476537,0.69991 -0.223375,0.28294 -0.550992,0.64034 -0.759478,0.87861 -0.208485,0.23827 -0.297833,0.3574 -0.506315,0.52121 -0.208482,0.1638 -0.536103,0.37229 -0.774375,0.50631 -0.238272,0.13403 -0.38718,0.19359 -0.536085,0.26805 -0.148904,0.0744 -0.297844,0.16381 -0.893511,0.3574 -0.595668,0.1936 -1.638085,0.49143 -2.293321,0.65525 -0.655236,0.16382 -0.923285,0.19362 -1.370036,0.26809 -0.446751,0.0745 -1.072202,0.1936 -1.563629,0.26805 -0.491428,0.0744 -0.848833,0.10421 -1.518956,0.13398 -0.670124,0.0298 -1.652978,0.0595 -2.695395,-0.0596 -1.042417,-0.11914 -2.144401,-0.3872 -2.978335,-0.61057 -0.833935,-0.22338 -1.399822,-0.40207 -1.81679,-0.56588 -0.416968,-0.16381 -0.68502,-0.31273 -1.101987,-0.52122 -0.416967,-0.20848 -0.98285,-0.47653 -1.757218,-0.83393 -0.774368,-0.3574 -1.757221,-0.80415 -2.576264,-1.17644 -0.819042,-0.37229 -1.474279,-0.67013 -2.159297,-0.95307 -0.685017,-0.28294 -1.399818,-0.55099 -1.950811,-0.77437 -0.550994,-0.22337 -0.938178,-0.40207 -1.280687,-0.55099 -0.342509,-0.14892 -0.640343,-0.26805 -0.804151,-0.34252 -0.163808,-0.0745 -0.193594,-0.10427 -0.238276,-0.13406 -0.04468,-0.0298 -0.104261,-0.0596 -0.163802,-0.11909 -0.05954,-0.0595 -0.119131,-0.14892 -0.178687,-0.23825 -0.05956,-0.0893 -0.119144,-0.17872 -0.150112,-0.31275 -0.03097,-0.13402 -0.03333,-0.31272 -0.03452,-0.40207 -0.0012,-0.0893 -0.001,-0.0891 0.134155,-0.104 z"
         id="path6"
         inkscape:path-effect="#path-effect6"
         inkscape:original-d="m 38.41351,140.36913 c 0.270406,-0.0298 0.540813,-0.0596 0.81122,-0.0894 0.208484,-0.0893 0.416967,-0.1787 0.625451,-0.26805 0.655233,-0.29783 1.310468,-0.59567 1.965704,-0.8935 1.161552,-0.44675 2.323105,-0.8935 3.484657,-1.34025 0.655233,-0.23827 1.310468,-0.47654 1.965704,-0.71481 0.953068,-0.3574 1.906137,-0.7148 2.859203,-1.0722 0.416968,-0.11913 0.833938,-0.23826 1.250905,-0.3574 0.387184,-0.11913 0.774367,-0.23827 1.16155,-0.3574 0.893504,-0.1787 1.787004,-0.3574 2.680507,-0.5361 0.26805,-0.0596 0.536102,-0.11913 0.804151,-0.1787 0.68502,-0.0596 1.370036,-0.11913 2.055056,-0.1787 0.387183,-0.0298 0.774366,-0.0596 1.16155,-0.0893 1.667872,0.1787 3.335742,0.3574 5.003612,0.5361 0.208484,0.0893 0.416967,0.1787 0.625451,0.26805 0.148915,0.14892 0.297834,0.29783 0.446749,0.44675 0.327618,0.62545 0.655235,1.2509 0.982853,1.87636 0,0.56588 0,1.13176 0,1.69765 0,0.1787 0,0.3574 0,0.5361 0.05957,0.1787 0.119134,0.3574 0.1787,0.5361 0.02978,0.0298 0.05957,0.0596 0.08935,0.0893 0,0.0298 0,0.0596 0,0.0894 0.02978,0.0298 0.05957,0.0596 0.08935,0.0893 0,0.0298 0,0.0596 0,0.0893 0.05956,0.0596 0.119134,0.11914 0.178699,0.1787 0.05957,0.11914 0.119134,0.23827 0.1787,0.3574 0.178702,0.14892 0.357402,0.29784 0.536101,0.44675 0.238268,0.23827 0.476536,0.47654 0.714801,0.71481 0.68502,0.1787 1.370037,0.3574 2.055056,0.5361 0.744585,-0.41697 1.489168,-0.83394 2.233753,-1.25091 1.101987,-0.83393 2.203971,-1.66787 3.305958,-2.5018 1.340252,-0.80415 2.680504,-1.6083 4.020756,-2.41245 0.238268,-0.11914 0.476536,-0.23827 0.714804,-0.35741 0.268049,-0.14891 0.536099,-0.29783 0.804151,-0.44675 0.833935,-0.20848 1.66787,-0.41697 2.501804,-0.62545 0.506318,-0.11913 1.012635,-0.23826 1.518955,-0.3574 0.923285,-0.20848 1.846569,-0.41697 2.769854,-0.62545 2.025272,-0.0893 4.050541,-0.1787 6.075812,-0.26805 0.208484,0.0596 0.416968,0.11913 0.625451,0.1787 0.297834,0.0596 0.595667,0.11913 0.893504,0.1787 0.357399,0.14892 0.7148,0.29783 1.0722,0.44675 0.08935,0.0893 0.178702,0.1787 0.268052,0.26805 0.08935,0.0596 0.178699,0.11913 0.268049,0.1787 0.119134,0.11913 0.238268,0.23827 0.357402,0.3574 0.506317,0.26805 1.012634,0.5361 1.518952,0.80415 0.357401,0.11914 0.714801,0.23827 1.072203,0.3574 0.50632,0.20849 1.01264,0.41697 1.51896,0.62546 0.0893,0.11913 0.1787,0.23826 0.26805,0.3574 0.11913,0.11913 0.23826,0.23826 0.3574,0.3574 0.29783,0.59566 0.59566,1.19133 0.8935,1.787 0.29783,0.3574 0.59566,0.7148 0.8935,1.0722 0.0893,0.1787 0.1787,0.3574 0.26805,0.5361 0.0893,0.0893 0.1787,0.1787 0.26805,0.26805 0.0298,0.14892 0.0596,0.29784 0.0893,0.44676 0.0893,0.47653 0.1787,0.95306 0.26805,1.4296 0,0.29783 0,0.59567 0,0.8935 0,0.41697 0,0.83394 0,1.2509 -0.14892,0.29784 -0.29783,0.59567 -0.44675,0.8935 -0.0298,0.0893 -0.0596,0.17871 -0.0894,0.26806 -0.1787,0.0894 -0.3574,0.1787 -0.5361,0.26805 -0.38718,0.26805 -0.77437,0.5361 -1.16155,0.80415 -0.23827,0.11913 -0.47654,0.23826 -0.71481,0.3574 -0.29783,0.1787 -0.59566,0.3574 -0.8935,0.5361 -0.1787,0.0893 -0.3574,0.1787 -0.5361,0.26805 -0.14892,0.14892 -0.29783,0.29783 -0.44675,0.44675 -0.1787,0.0893 -0.357402,0.1787 -0.536102,0.26805 -0.893501,0.38719 -1.787004,0.77437 -2.680504,1.16155 -1.310471,0.14892 -2.620939,0.29784 -3.93141,0.44675 -0.416967,0.0298 -0.833935,0.0596 -1.250902,0.0893 -0.357399,0.0298 -0.714801,0.0596 -1.072203,0.0893 -1.310468,-0.23826 -2.620936,-0.47653 -3.931406,-0.7148 -1.072203,-0.29783 -2.144403,-0.59566 -3.216606,-0.8935 -0.268052,-0.11913 -0.536102,-0.23827 -0.804154,-0.3574 -0.774366,-0.32762 -1.548735,-0.65524 -2.323102,-0.98285 -0.714804,-0.26805 -1.429605,-0.5361 -2.144406,-0.80415 -0.297833,-0.11914 -0.595667,-0.23827 -0.8935,-0.3574 -1.101987,-0.3574 -2.203971,-0.7148 -3.305958,-1.07221 -0.148916,-0.0893 -0.297834,-0.1787 -0.446752,-0.26805 -0.268049,-0.11913 -0.536099,-0.23826 -0.804151,-0.3574 -0.119134,-0.0893 -0.238268,-0.1787 -0.357399,-0.26805 -0.178702,-0.11913 -0.357402,-0.23826 -0.536101,-0.3574 -0.297836,-0.41697 -0.59567,-0.83393 -0.893503,-1.2509 -0.208484,-0.20848 -0.416968,-0.41697 -0.625452,-0.62545 0,-0.0298 0,-0.0596 0,-0.0893 -0.05957,0 -0.119133,0 -0.178699,0 -0.05957,-0.0596 -0.119134,-0.11914 -0.1787,-0.1787 -0.05957,-0.0298 -0.119134,-0.0596 -0.178702,-0.0894 -0.119134,-0.14892 -0.238265,-0.29784 -0.357399,-0.44675 -0.08935,0.11913 -0.178702,0.23826 -0.268052,0.3574 -0.148916,0.20848 -0.297834,0.41696 -0.446752,0.62545 -0.119131,0.20848 -0.238265,0.41697 -0.357399,0.62545 -0.327618,0.3574 -0.655235,0.7148 -0.982853,1.0722 -0.08935,0.11914 -0.178699,0.23827 -0.268049,0.3574 -0.327618,0.20848 -0.655236,0.41697 -0.982853,0.62545 -0.148916,0.0596 -0.297834,0.11914 -0.446752,0.1787 -0.148915,0.0893 -0.297833,0.1787 -0.446749,0.26805 -1.042418,0.29784 -2.084837,0.59567 -3.127256,0.89351 -0.268052,0.0298 -0.536101,0.0596 -0.804153,0.0894 -0.625451,0.11913 -1.250902,0.23826 -1.876354,0.3574 -0.357399,0.0298 -0.714801,0.0596 -1.072202,0.0893 -0.982851,0.0298 -1.965704,0.0596 -2.948554,0.0893 -1.101987,-0.26805 -2.203971,-0.5361 -3.305958,-0.80416 -0.565883,-0.17869 -1.131769,-0.35739 -1.697654,-0.53609 -0.26805,-0.14892 -0.536102,-0.29784 -0.804151,-0.44676 -0.565885,-0.26805 -1.131768,-0.5361 -1.697654,-0.80415 -0.98285,-0.44675 -1.965703,-0.8935 -2.948556,-1.34025 -0.655233,-0.29783 -1.310468,-0.59567 -1.965704,-0.8935 -0.7148,-0.26805 -1.429601,-0.5361 -2.144402,-0.80415 -0.387186,-0.1787 -0.77437,-0.3574 -1.161553,-0.5361 -0.297834,-0.11914 -0.59567,-0.23827 -0.893503,-0.35741 -0.02978,-0.0298 -0.05957,-0.0596 -0.08935,-0.0894 -0.05957,-0.0298 -0.119134,-0.0596 -0.1787,-0.0893 -0.05957,-0.0893 -0.119134,-0.1787 -0.178699,-0.26805 -0.05957,-0.0893 -0.119134,-0.1787 -0.178702,-0.26805 -0.0024,-0.1787 -0.0047,-0.3574 -0.0071,-0.5361 z" />
      <path
         style="fill:#ff6600;fill-rule:evenodd;stroke:#000000;stroke-width:0.499999;stroke-linejoin:bevel;stroke-dasharray:none;stroke-opacity:1"
         d="m 70.690779,143.40683 c -0.09428,0.41704 -0.188557,0.83407 -0.17613,1.2064 0.01243,0.37233 0.131561,0.69995 0.295368,1.13181 0.163807,0.43185 0.372289,0.96795 0.655231,1.57851 0.282942,0.61056 0.640345,1.29558 0.923288,1.77212 0.282943,0.47653 0.491426,0.74458 0.863721,1.20622 0.372294,0.46165 0.908393,1.11688 1.265793,1.53385 0.357399,0.41696 0.536102,0.59567 0.833935,0.83393 0.297833,0.23827 0.714799,0.5361 1.012633,0.74459 0.297835,0.20848 0.476532,0.32761 0.789259,0.49142 0.312726,0.16381 0.75948,0.3723 1.131775,0.50632 0.372295,0.13403 0.670122,0.19359 1.161549,0.31273 0.491427,0.11913 1.176443,0.29783 1.787003,0.49142 0.61056,0.19359 1.146664,0.40208 1.474281,0.56589 0.327617,0.16381 0.44675,0.28294 0.610558,0.41696 0.163808,0.13403 0.372292,0.28295 0.625448,0.53611 0.253156,0.25315 0.550995,0.61056 0.744576,0.83392 0.19358,0.22337 0.282954,0.31274 0.34252,0.46165 0.05957,0.14892 0.08935,0.35741 0.104243,0.68503 0.01489,0.32761 0.01489,0.77436 -0.08935,1.13176 -0.104242,0.3574 -0.312726,0.62545 -0.476534,0.84883 -0.163809,0.22337 -0.282943,0.40207 -0.416971,0.58077 -0.134027,0.17871 -0.282939,0.3574 -0.416964,0.52121 -0.134025,0.16381 -0.253159,0.31273 -0.387173,0.43186 -0.134014,0.11913 -0.282953,0.20849 -0.416978,0.31273 -0.134024,0.10424 -0.253156,0.22337 -0.476533,0.37229 -0.223377,0.14892 -0.550995,0.32762 -0.789261,0.47654 -0.238266,0.14891 -0.387187,0.26805 -0.565891,0.3574 -0.178705,0.0893 -0.387179,0.14891 -0.625445,0.23826 -0.238267,0.0893 -0.506319,0.20849 -1.13177,0.43186 -0.625451,0.22338 -1.608302,0.55099 -2.323104,0.7148 -0.714801,0.16381 -1.161552,0.16381 -1.652974,0.11914 -0.491423,-0.0447 -1.027532,-0.13403 -1.370046,-0.20849 -0.342515,-0.0745 -0.49142,-0.13402 -0.610541,-0.20847 -0.119121,-0.0744 -0.208498,-0.16382 -0.357415,-0.3723 -0.148918,-0.20849 -0.357399,-0.5361 -0.550993,-0.84883 -0.193594,-0.31273 -0.372293,-0.61056 -0.670127,-0.96796 -0.297835,-0.3574 -0.714803,-0.77437 -1.39982,-0.83393 -0.685016,-0.0596 -1.638083,0.23827 -2.189075,0.46164 -0.550991,0.22337 -0.69991,0.37229 -0.938177,0.55099 -0.238267,0.1787 -0.565884,0.38719 -0.848828,0.58078 -0.282944,0.19359 -0.521209,0.37229 -0.685023,0.47652 -0.163814,0.10424 -0.253174,0.13401 -0.38718,0.19356 -0.134006,0.0596 -0.312725,0.14891 -0.580777,0.1787 -0.268053,0.0298 -0.625455,3e-5 -0.997744,-0.1191 -0.372289,-0.11912 -0.759477,-0.32761 -1.027516,-0.47652 -0.268039,-0.14891 -0.416977,-0.23827 -0.685028,-0.50632 -0.268051,-0.26805 -0.655235,-0.7148 -0.893502,-1.04242 -0.238268,-0.32762 -0.327616,-0.5361 -0.461641,-0.83394 -0.134025,-0.29783 -0.312724,-0.68501 -0.416967,-0.98285 -0.104243,-0.29783 -0.134026,-0.50631 -0.16381,-0.87861 -0.02978,-0.37229 -0.05957,-0.90839 -0.01489,-1.28068 0.04468,-0.3723 0.163808,-0.58078 0.491425,-0.92329 0.327618,-0.34251 0.863715,-0.81904 1.280685,-1.07219 0.41697,-0.25316 0.714808,-0.28292 1.087098,-0.28292 0.37229,0 0.819043,0.0298 1.0871,0.0744 0.268056,0.0447 0.357393,0.10423 0.550977,0.17868 0.193583,0.0745 0.49143,0.16381 0.714811,0.23827 0.223381,0.0745 0.372289,0.13403 0.491429,0.1936 0.119141,0.0596 0.208476,0.11913 0.282936,0.14892 0.07446,0.0298 0.134025,0.0298 0.223375,0.0298 0.08935,0 0.208484,0 0.327618,0"
         id="path7"
         inkscape:path-effect="#path-effect7"
         inkscape:original-d="m 70.690779,143.40683 c -0.09428,0.41704 -0.188558,0.83407 -0.282837,1.25111 0.119134,0.32762 0.238268,0.65524 0.357399,0.98285 0.208484,0.5361 0.416967,1.0722 0.625451,1.60831 0.357402,0.68501 0.714804,1.37003 1.072203,2.05505 0.208484,0.26805 0.416967,0.5361 0.625451,0.80415 0.536102,0.65524 1.072203,1.31047 1.608304,1.9657 0.1787,0.1787 0.357399,0.35741 0.536102,0.53611 0.416967,0.29783 0.833935,0.59566 1.250902,0.8935 0.1787,0.11913 0.357399,0.23826 0.536101,0.3574 0.446749,0.20848 0.893501,0.41697 1.340253,0.62545 0.297833,0.0596 0.595667,0.11913 0.8935,0.1787 0.68502,0.1787 1.370036,0.3574 2.055056,0.5361 0.536101,0.20848 1.072203,0.41697 1.608301,0.62545 0.119134,0.11914 0.238268,0.23827 0.357402,0.3574 0.208484,0.14892 0.416968,0.29784 0.625451,0.44676 0.297834,0.35739 0.595667,0.7148 0.893504,1.0722 0.08935,0.0893 0.178699,0.1787 0.268049,0.26805 0.02978,0.20848 0.05957,0.41697 0.08935,0.62545 0,0.44675 0,0.8935 0,1.34025 -0.208484,0.26805 -0.416968,0.5361 -0.625451,0.80415 -0.119134,0.1787 -0.238268,0.3574 -0.357402,0.5361 -0.148916,0.17871 -0.297834,0.3574 -0.446749,0.5361 -0.119134,0.14892 -0.238268,0.29784 -0.357402,0.44676 -0.148915,0.0893 -0.297833,0.1787 -0.446752,0.26805 -0.119131,0.11913 -0.238265,0.23826 -0.357399,0.3574 -0.327617,0.1787 -0.655235,0.3574 -0.982853,0.5361 -0.148915,0.11913 -0.297833,0.23827 -0.446751,0.3574 -0.208484,0.0596 -0.416968,0.11913 -0.625451,0.1787 -0.26805,0.11913 -0.536099,0.23827 -0.804151,0.3574 -0.982851,0.32762 -1.965704,0.65523 -2.948557,0.98285 -0.446749,0 -0.8935,0 -1.340252,0 -0.536101,-0.0893 -1.072202,-0.1787 -1.608304,-0.26805 -0.148915,-0.0596 -0.297833,-0.11913 -0.446749,-0.1787 -0.08935,-0.0893 -0.178702,-0.1787 -0.268052,-0.26805 -0.208484,-0.32762 -0.416967,-0.65523 -0.625451,-0.98285 -0.1787,-0.29784 -0.357399,-0.59567 -0.536101,-0.8935 -0.416968,-0.41697 -0.833935,-0.83394 -1.250903,-1.2509 -0.953069,0.29783 -1.906137,0.59566 -2.859204,0.8935 -0.148918,0.14891 -0.297836,0.29783 -0.446751,0.44675 -0.327618,0.20848 -0.655236,0.41696 -0.982853,0.62545 -0.238268,0.1787 -0.476533,0.3574 -0.714801,0.5361 -0.08935,0.0298 -0.1787,0.0596 -0.26805,0.0893 -0.178702,0.0893 -0.357401,0.1787 -0.536101,0.26805 -0.357402,-0.0298 -0.714801,-0.0596 -1.072203,-0.0893 -0.387183,-0.20848 -0.774369,-0.41697 -1.161552,-0.62545 -0.148918,-0.0893 -0.297834,-0.1787 -0.446752,-0.26805 -0.387183,-0.44675 -0.774367,-0.8935 -1.161552,-1.34025 -0.08935,-0.20849 -0.1787,-0.41697 -0.26805,-0.62546 -0.178699,-0.38718 -0.357402,-0.77436 -0.536101,-1.16155 -0.02978,-0.20848 -0.05957,-0.41696 -0.08935,-0.62545 -0.02978,-0.5361 -0.05957,-1.0722 -0.08935,-1.6083 0.119134,-0.20849 0.238268,-0.41697 0.357399,-0.62545 0.536102,-0.47654 1.072203,-0.95307 1.608305,-1.42961 0.297833,-0.0298 0.595667,-0.0596 0.8935,-0.0893 0.446752,0.0298 0.893503,0.0596 1.340255,0.0893 0.08935,0.0596 0.178699,0.11914 0.268049,0.1787 0.297834,0.0893 0.595667,0.1787 0.893503,0.26805 0.148916,0.0596 0.297834,0.11914 0.446749,0.17871 0.08935,0.0596 0.178703,0.11913 0.268052,0.1787 0.05957,0 0.119134,0 0.1787,0 0.119134,0 0.238268,0 0.357402,0" />
      <path
         style="fill:#ffffff;fill-rule:evenodd;stroke:#000000;stroke-width:0.499999;stroke-linejoin:bevel;stroke-dasharray:none;stroke-opacity:1"
         d="m 38.472799,160.77075 c 0.104242,-0.0298 0.517436,-0.0298 0.887844,-0.0447 0.370407,-0.0149 0.698028,-0.0446 1.323477,-0.0446 0.625448,0 1.548734,0.0298 2.144402,0.0595 0.595668,0.0298 0.863723,0.0595 1.161553,0.16377 0.29783,0.10423 0.625448,0.28293 0.863721,0.40207 0.238273,0.11913 0.387178,0.1787 0.714794,0.32762 0.327616,0.14892 0.833936,0.38718 1.221119,0.62545 0.387183,0.23826 0.655234,0.47653 1.087094,0.86372 0.43186,0.38718 1.027528,0.92328 1.459388,1.35514 0.43186,0.43186 0.699913,0.75948 0.908396,0.99774 0.208482,0.23827 0.357401,0.38719 0.476534,0.5361 0.119132,0.14892 0.208484,0.29784 0.446751,0.56589 0.238266,0.26805 0.625448,0.65523 0.878605,0.92328 0.253158,0.26805 0.372293,0.41697 0.565885,0.59567 0.193592,0.1787 0.461646,0.38719 0.699913,0.58078 0.238267,0.19359 0.44675,0.37229 0.819042,0.61056 0.372291,0.23826 0.908396,0.5361 1.459389,0.83393 0.550992,0.29784 1.116877,0.59567 1.518955,0.77437 0.402079,0.1787 0.64034,0.23826 0.863705,0.31272 0.223365,0.0745 0.431867,0.16381 0.68503,0.23827 0.253163,0.0745 0.550991,0.13402 0.819049,0.20849 0.268058,0.0745 0.506309,0.16381 0.789254,0.23827 0.282945,0.0745 0.610556,0.13402 0.967952,0.20848 0.357395,0.0745 0.744587,0.16381 1.489173,0.28294 0.744586,0.11914 1.846574,0.26805 3.395308,0.38719 1.548735,0.11913 3.544225,0.20848 4.705771,0.20848 1.161546,0 1.489177,-0.0893 2.114628,-0.26805 0.625451,-0.1787 1.548739,-0.44675 2.144405,-0.65524 0.595667,-0.20848 0.863717,-0.3574 1.295575,-0.58078 0.431859,-0.22337 1.027525,-0.52121 1.638085,-0.81904 0.61056,-0.29783 1.236013,-0.59567 1.682763,-0.80415 0.446751,-0.20848 0.714803,-0.32762 1.116878,-0.5361 0.402075,-0.20848 0.93818,-0.50632 1.355147,-0.72969 0.416967,-0.22338 0.714802,-0.3723 1.191337,-0.64035 0.476535,-0.26805 1.131766,-0.65523 1.578517,-0.90839 0.446752,-0.25316 0.685017,-0.37229 1.131767,-0.64034 0.446749,-0.26806 1.101985,-0.68502 1.816787,-1.11688 0.714802,-0.43186 1.489171,-0.87861 2.114622,-1.20623 0.625451,-0.32761 1.101986,-0.5361 1.459388,-0.69991 0.357401,-0.1638 0.595668,-0.28294 0.819044,-0.40207 0.223377,-0.11914 0.431859,-0.23827 0.655238,-0.32762 0.223379,-0.0894 0.461638,-0.14891 0.878601,-0.22337 0.416963,-0.0745 1.01264,-0.16381 1.489174,-0.20849 0.476535,-0.0447 0.833934,-0.0447 1.32536,0.0596 0.491426,0.10424 1.116876,0.31273 1.638086,0.50632 0.52121,0.19359 0.938178,0.37229 1.16156,0.49144 0.223383,0.11915 0.253151,0.17868 0.312717,0.26803 0.05957,0.0893 0.14892,0.20849 0.238256,0.31272 0.08933,0.10423 0.178712,0.1936 0.327632,0.77438 0.14891,0.58077 0.3574,1.65298 0.43186,2.50181 0.0744,0.84882 0.0149,1.47427 -0.0893,1.93591 -0.10424,0.46164 -0.25316,0.75948 -0.789263,1.48917 -0.5361,0.72969 -1.459388,1.89125 -2.084838,2.56137 -0.625449,0.67013 -0.953067,0.84883 -1.563628,1.16155 -0.61056,0.31273 -1.50406,0.75948 -2.740072,1.31047 -1.236012,0.551 -2.81453,1.20623 -3.842057,1.59342 -1.027527,0.38718 -1.504059,0.50632 -1.876345,0.61056 -0.372286,0.10423 -0.640353,0.19359 -0.923298,0.26805 -0.282944,0.0745 -0.58077,0.13402 -1.504056,0.44675 -0.923286,0.31272 -2.472024,0.87861 -3.663359,1.31047 -1.191334,0.43185 -2.025271,0.72969 -3.06769,1.0722 -1.042419,0.3425 -2.293321,0.72969 -3.812274,1.14665 -1.518954,0.41697 -3.305956,0.86373 -4.690885,1.11689 -1.384929,0.25316 -2.36778,0.31272 -3.037907,0.32762 -0.670128,0.0149 -1.02753,-0.0149 -1.831679,-0.10421 -0.80415,-0.0893 -2.055052,-0.23825 -3.112363,-0.43185 -1.057311,-0.19359 -1.921031,-0.43185 -2.88899,-0.7148 -0.967959,-0.28294 -2.040161,-0.61056 -2.710287,-0.83394 -0.670125,-0.22337 -0.938176,-0.34251 -1.221118,-0.46164 -0.282942,-0.11913 -0.580775,-0.23827 -0.8935,-0.37229 -0.312725,-0.13403 -0.640345,-0.28294 -1.101986,-0.47653 -0.461642,-0.1936 -1.057313,-0.43186 -1.623197,-0.69991 -0.565884,-0.26805 -1.101988,-0.56589 -1.504063,-0.80415 -0.402075,-0.23827 -0.670127,-0.41697 -0.923287,-0.56589 -0.253159,-0.14892 -0.491424,-0.26805 -0.670124,-0.40207 -0.1787,-0.13403 -0.297834,-0.28295 -0.446752,-0.44676 -0.148917,-0.16381 -0.327614,-0.3425 -0.491424,-0.53609 -0.163811,-0.1936 -0.312725,-0.40208 -0.461641,-0.61057 -0.148917,-0.20848 -0.297833,-0.41696 -0.506319,-0.86372 -0.208486,-0.44675 -0.476534,-1.13176 -0.670127,-1.59341 -0.193593,-0.46164 -0.312728,-0.69991 -0.43186,-0.95306 -0.119133,-0.25316 -0.238267,-0.52121 -0.357401,-0.75948 -0.119134,-0.23827 -0.238264,-0.44675 -0.387182,-0.77437 -0.148918,-0.32762 -0.327618,-0.77437 -0.476535,-1.10199 -0.148917,-0.32761 -0.268053,-0.5361 -0.431862,-0.8935 -0.163809,-0.3574 -0.372294,-0.86372 -0.536102,-1.23601 -0.163808,-0.37229 -0.282941,-0.61056 -0.372291,-0.84882 -0.08935,-0.23827 -0.148917,-0.47654 -0.253159,-0.77437 -0.104243,-0.29784 -0.253158,-0.65524 -0.431857,-1.07221 -0.178698,-0.41696 -0.387185,-0.8935 -0.536088,-1.17643 -0.148904,-0.28292 -0.238281,-0.3723 -0.312741,-0.47655 -0.07446,-0.10424 -0.134025,-0.22337 -0.1936,-0.31273 -0.05957,-0.0894 -0.119122,-0.1489 -0.193582,-0.23825 -0.07446,-0.0894 -0.163811,-0.20849 -0.297834,-0.40208 -0.134024,-0.19359 -0.312723,-0.46164 -0.461648,-0.62546 -0.148926,-0.16381 -0.268043,-0.22337 -0.43185,-0.3425 -0.163807,-0.11914 -0.372295,-0.29784 -0.506322,-0.38719 -0.134027,-0.0894 -0.193591,-0.0894 -0.282948,-0.11914 -0.08936,-0.0298 -0.208476,-0.0893 -0.370403,-0.14891 -0.161927,-0.0596 -0.366628,-0.11913 -0.262387,-0.14892 z"
         id="path8"
         inkscape:path-effect="#path-effect8"
         inkscape:original-d="m 38.163843,160.74097 c 0.413198,0 0.826392,0 1.239587,0 0.327617,-0.0298 0.655235,-0.0596 0.98285,-0.0893 0.923287,0.0298 1.846572,0.0596 2.769857,0.0893 0.268049,0.0298 0.536101,0.0596 0.80415,0.0893 0.327618,0.1787 0.655236,0.3574 0.982853,0.5361 0.148919,0.0596 0.297834,0.11914 0.446752,0.17871 0.506317,0.23826 1.012635,0.47653 1.518952,0.7148 0.268052,0.23826 0.536101,0.47653 0.804151,0.7148 0.595669,0.5361 1.191336,1.0722 1.787003,1.6083 0.268052,0.32762 0.536102,0.65524 0.804154,0.98285 0.148915,0.14892 0.297833,0.29784 0.446749,0.44675 0.08935,0.14892 0.178702,0.29784 0.268052,0.44675 0.387183,0.38719 0.774369,0.77437 1.161552,1.16156 0.119134,0.14891 0.238268,0.29783 0.357399,0.44675 0.268052,0.20848 0.536102,0.41697 0.804154,0.62545 0.208484,0.1787 0.416967,0.3574 0.625451,0.5361 0.536101,0.29783 1.072203,0.59567 1.608301,0.8935 0.565886,0.29784 1.131772,0.59567 1.697654,0.8935 0.238268,0.0596 0.476536,0.11914 0.714801,0.1787 0.208484,0.0893 0.416968,0.1787 0.625452,0.26805 0.297836,0.0596 0.595669,0.11914 0.893503,0.1787 0.238268,0.0894 0.476533,0.17871 0.714801,0.26806 0.327617,0.0596 0.655235,0.11913 0.982853,0.1787 0.387183,0.0893 0.774366,0.17869 1.161552,0.26805 1.101985,0.14891 2.203972,0.29783 3.305956,0.44675 1.995487,0.0893 3.990975,0.1787 5.986462,0.26805 0.327618,-0.0893 0.655236,-0.1787 0.982853,-0.26805 0.923285,-0.26805 1.84657,-0.53611 2.769854,-0.80415 0.268052,-0.14892 0.536102,-0.29784 0.804151,-0.44676 0.59567,-0.29783 1.191337,-0.59566 1.787004,-0.8935 0.625451,-0.29783 1.250902,-0.59567 1.876353,-0.8935 0.268052,-0.11913 0.536102,-0.23827 0.804154,-0.3574 0.536101,-0.29783 1.072203,-0.59567 1.608301,-0.8935 0.297836,-0.14892 0.59567,-0.29784 0.893503,-0.44675 0.655236,-0.38719 1.310468,-0.77437 1.965704,-1.16155 0.238268,-0.11914 0.476536,-0.23827 0.714801,-0.35741 0.655235,-0.41696 1.31047,-0.83393 1.965703,-1.2509 0.774369,-0.44675 1.548739,-0.8935 2.323105,-1.34025 0.476536,-0.20848 0.953069,-0.41697 1.429605,-0.62545 0.238265,-0.11914 0.476533,-0.23827 0.714801,-0.3574 0.208484,-0.11914 0.416967,-0.23827 0.625451,-0.3574 0.238268,-0.0596 0.476533,-0.11914 0.714801,-0.1787 0.595667,-0.0893 1.191337,-0.1787 1.787004,-0.26805 0.357402,0 0.714801,0 1.072202,0 0.625452,0.20848 1.250903,0.41696 1.876354,0.62545 0.416967,0.1787 0.833935,0.3574 1.250902,0.5361 0.02979,0.0596 0.05957,0.11913 0.08935,0.1787 0.08935,0.11913 0.1787,0.23827 0.26805,0.3574 0.08935,0.0893 0.1787,0.1787 0.26805,0.26805 0.20849,1.0722 0.41697,2.14441 0.62545,3.21661 -0.0596,0.62545 -0.11913,1.2509 -0.1787,1.87635 -0.14891,0.29783 -0.29783,0.59567 -0.44675,0.8935 -0.923283,1.16155 -1.846568,2.32311 -2.769855,3.48466 -0.327615,0.1787 -0.655233,0.3574 -0.982851,0.5361 -0.893503,0.44675 -1.787003,0.8935 -2.680506,1.34025 -1.57852,0.65524 -3.157041,1.31047 -4.735558,1.96571 -0.476536,0.11913 -0.953069,0.23826 -1.429604,0.3574 -0.26805,0.0893 -0.536102,0.1787 -0.804151,0.26805 -0.297834,0.0596 -0.595667,0.11913 -0.893503,0.1787 -1.548736,0.56588 -3.097472,1.13177 -4.646208,1.69765 -0.833935,0.29783 -1.66787,0.59567 -2.501805,0.8935 -1.250902,0.38719 -2.501805,0.77437 -3.75271,1.16155 -1.787001,0.44676 -3.574004,0.89351 -5.361008,1.34026 -0.982853,0.0596 -1.965706,0.11913 -2.948556,0.1787 -0.357402,-0.0298 -0.714801,-0.0596 -1.072203,-0.0893 -1.250903,-0.14892 -2.501805,-0.29783 -3.752707,-0.44675 -0.863719,-0.23827 -1.727438,-0.47654 -2.591155,-0.7148 -1.072203,-0.32762 -2.144405,-0.65524 -3.216608,-0.98286 -0.268049,-0.11913 -0.536102,-0.23826 -0.804151,-0.3574 -0.297833,-0.11913 -0.595667,-0.23826 -0.8935,-0.3574 -0.327618,-0.14891 -0.655236,-0.29783 -0.982853,-0.44675 -0.595667,-0.23826 -1.191337,-0.47653 -1.787004,-0.7148 -0.536102,-0.29783 -1.072203,-0.59567 -1.608304,-0.8935 -0.26805,-0.1787 -0.536102,-0.3574 -0.804151,-0.5361 -0.238268,-0.11914 -0.476533,-0.23827 -0.714801,-0.3574 -0.119134,-0.14892 -0.238268,-0.29784 -0.357402,-0.44676 -0.178699,-0.1787 -0.357399,-0.35739 -0.536101,-0.53609 -0.148916,-0.20849 -0.297834,-0.41697 -0.446749,-0.62546 -0.148918,-0.20848 -0.297836,-0.41696 -0.446752,-0.62545 -0.268052,-0.68502 -0.536101,-1.37003 -0.804151,-2.05505 -0.119134,-0.23827 -0.238267,-0.47654 -0.357401,-0.7148 -0.119134,-0.26805 -0.238268,-0.5361 -0.357402,-0.80415 -0.119131,-0.20849 -0.238265,-0.41697 -0.357399,-0.62546 -0.178703,-0.44675 -0.357402,-0.8935 -0.536102,-1.34025 -0.119134,-0.20848 -0.238268,-0.41697 -0.357402,-0.62545 -0.208483,-0.50632 -0.416967,-1.01264 -0.625451,-1.51895 -0.119134,-0.23827 -0.238265,-0.47654 -0.357399,-0.7148 -0.05957,-0.23827 -0.119134,-0.47654 -0.178702,-0.7148 -0.148916,-0.35741 -0.297834,-0.71481 -0.446749,-1.07221 -0.208484,-0.47653 -0.416968,-0.95307 -0.625451,-1.4296 -0.08935,-0.0893 -0.178702,-0.1787 -0.268052,-0.26805 -0.05957,-0.11914 -0.119134,-0.23827 -0.1787,-0.3574 -0.05957,-0.0596 -0.119134,-0.11913 -0.178699,-0.1787 -0.08935,-0.11914 -0.178703,-0.23827 -0.268052,-0.3574 -0.1787,-0.26805 -0.3574,-0.5361 -0.536102,-0.80416 -0.119134,-0.0596 -0.238265,-0.11913 -0.357399,-0.1787 -0.208484,-0.17869 -0.416967,-0.3574 -0.625451,-0.5361 -0.05957,0 -0.119134,0 -0.178702,0 -0.119132,-0.0596 -0.238266,-0.11913 -0.3574,-0.1787 -0.20471,-0.0596 -0.409421,-0.11913 -0.614135,-0.1787 z" />
      <path
         style="fill:#ff6600;fill-rule:evenodd;stroke:#000000;stroke-width:0.499999;stroke-linejoin:bevel;stroke-dasharray:none;stroke-opacity:1"
         d="m 53.312274,168.6782 c 0.03971,0.15389 0.07942,0.30779 0.0546,0.4592 -0.02482,0.15141 -0.114168,0.30032 -0.203518,0.47902 -0.08935,0.1787 -0.178703,0.38719 -0.357403,0.77437 -0.1787,0.38719 -0.446748,0.95307 -0.967958,2.12952 -0.521209,1.17644 -1.295576,2.96344 -1.742328,4.06543 -0.446751,1.10198 -0.565886,1.51895 -0.655235,1.787 -0.08935,0.26805 -0.148916,0.38718 -0.178701,0.46165 -0.02978,0.0745 -0.02978,0.10427 -0.0273,-0.0397 0.0025,-0.14399 0.0074,-0.46168 0.01242,-0.77937"
         id="path9"
         inkscape:path-effect="#path-effect9"
         inkscape:original-d="m 53.312274,168.6782 c 0.03971,0.15389 0.07942,0.30779 0.119134,0.46169 -0.08935,0.14892 -0.1787,0.29783 -0.268052,0.44675 -0.08935,0.20848 -0.1787,0.41697 -0.26805,0.62545 -0.268049,0.56589 -0.536101,1.13177 -0.804151,1.69766 -0.774369,1.787 -1.548738,3.574 -2.323105,5.36101 -0.119134,0.41696 -0.238268,0.83393 -0.357402,1.2509 -0.05956,0.11913 -0.119133,0.23826 -0.178699,0.3574 0,0.0298 0,0.0596 0,0.0893 0.005,-0.31769 0.0099,-0.63538 0.0149,-0.95307" />
      <path
         style="fill:#ffffff;fill-rule:evenodd;stroke:#000000;stroke-width:0.499999;stroke-linejoin:bevel;stroke-dasharray:none;stroke-opacity:1"
         d="m 66.119131,172.77341 c 0.565886,0.278 1.13177,0.55599 1.429604,0.79923 0.297835,0.24324 0.327619,0.45173 0.357402,0.76446 0.02978,0.31272 0.05957,0.72969 0.119133,1.59341 0.05957,0.86371 0.148916,2.17418 0.223375,3.14214 0.07446,0.96796 0.134026,1.59341 0.16381,2.18908 0.02978,0.59567 0.02978,1.16155 0.04468,1.47429 0.0149,0.31274 0.04467,0.37228 0.07445,0.46163 0.02978,0.0893 0.05957,0.20848 0.320171,0.20599 0.260605,-0.002 0.752029,-0.1266 1.243457,-0.25072"
         id="path10"
         inkscape:path-effect="#path-effect10"
         inkscape:original-d="m 66.119131,172.77341 c 0.565885,0.278 1.131771,0.55599 1.697656,0.83399 0.02978,0.20848 0.05957,0.41697 0.08935,0.62545 0.02978,0.41697 0.05957,0.83394 0.08935,1.2509 0.08935,1.31047 0.1787,2.62094 0.268049,3.93141 0.05957,0.62545 0.119134,1.2509 0.178703,1.87635 0,0.56589 0,1.13177 0,1.69766 0.02978,0.0596 0.05957,0.11913 0.08935,0.1787 0.02978,0.11913 0.05957,0.23826 0.08935,0.3574 0.491424,-0.12412 0.98285,-0.24823 1.474277,-0.37235" />
      <path
         style="fill:#ffffff;fill-rule:evenodd;stroke:#000000;stroke-width:0.499999;stroke-linejoin:bevel;stroke-dasharray:none;stroke-opacity:1"
         d="m 79.70036,169.85464 c 0.208482,0.32763 0.416969,0.65527 0.610562,0.92333 0.193592,0.26806 0.372292,0.47654 0.536102,0.71481 0.16381,0.23827 0.312727,0.50632 0.550993,0.95307 0.238267,0.44675 0.565882,1.0722 0.819041,1.59341 0.253158,0.52121 0.43186,0.93818 0.565884,1.23601 0.134025,0.29783 0.223375,0.47653 0.297834,0.74458 0.07446,0.26805 0.134026,0.62546 0.1787,0.8935 0.04467,0.26805 0.07446,0.44676 0.08935,0.62546 0.01489,0.1787 0.01489,0.3574 0.04467,0.5361 0.02978,0.1787 0.08935,0.3574 0.119134,0.47655 0.02978,0.11915 0.02978,0.17868 0.04468,0.22336 0.0149,0.0447 0.0447,0.0745 0.05958,0.10422 0.01487,0.0298 0.01487,0.0596 0.02976,0.0744 0.01489,0.0148 0.04468,0.0148 0.05957,0.0298 0.01489,0.0149 0.01489,0.0447 0.282941,-0.0323 0.26805,-0.077 0.804152,-0.26067 1.340253,-0.44435"
         id="path11"
         inkscape:path-effect="#path-effect11"
         inkscape:original-d="m 79.70036,169.85464 c 0.208483,0.32763 0.416967,0.65527 0.625451,0.9829 0.1787,0.20849 0.357402,0.41697 0.536101,0.62545 0.148918,0.26806 0.297834,0.53611 0.446752,0.80415 0.327618,0.62546 0.655235,1.25091 0.98285,1.87636 0.178703,0.41697 0.357402,0.83394 0.536102,1.2509 0.08935,0.1787 0.178702,0.3574 0.268052,0.5361 0.05956,0.3574 0.119134,0.71481 0.178699,1.0722 0.02978,0.1787 0.05957,0.35741 0.08935,0.53611 0,0.1787 0,0.3574 0,0.5361 0.05957,0.1787 0.119134,0.3574 0.1787,0.5361 0,0.0596 0,0.11913 0,0.1787 0.02978,0.0298 0.05957,0.0596 0.08935,0.0893 0,0.0298 0,0.0596 0,0.0893 0.02978,0 0.05957,0 0.08935,0 0,0.0298 0,0.0596 0,0.0893 0.536101,-0.18368 1.072203,-0.36736 1.608304,-0.55104" />
      <path
         style="fill:#000080;fill-rule:evenodd;stroke:#000000;stroke-width:0.499999;stroke-linejoin:bevel;stroke-dasharray:none;stroke-opacity:1"
         d="m 53.074006,137.95668 c -0.625451,0 -1.250903,0 -1.965704,0.1787 -0.714801,0.1787 -1.518951,0.5361 -2.055054,0.83393 -0.536102,0.29784 -0.80415,0.5361 -0.967959,0.77437 -0.16381,0.23827 -0.223375,0.47653 -0.238266,0.74458 -0.01489,0.26806 0.01489,0.56589 0.282941,1.02754 0.26805,0.46164 0.774367,1.08709 2.293319,1.35514 1.518952,0.26805 4.050543,0.1787 5.554604,-0.31273 1.50406,-0.49142 1.980598,-1.38493 2.203972,-1.93592 0.223375,-0.55099 0.193591,-0.75948 -0.07446,-1.0722 -0.268051,-0.31273 -0.774365,-0.72969 -2.025268,-1.16155 -1.250902,-0.43186 -3.246389,-0.87862 -4.407942,-1.08709 -1.161554,-0.20848 -1.489171,-0.17868 -1.682752,-0.11912 -0.193582,0.0596 -0.253171,0.14894 -0.253171,-0.0248 0,-0.17374 0.05957,-0.61059 0.119134,-1.04743"
         id="path12"
         inkscape:path-effect="#path-effect12"
         inkscape:original-d="m 53.074006,137.95668 c -0.625451,0 -1.250903,0 -1.876354,0 -0.804151,0.3574 -1.608301,0.7148 -2.412455,1.0722 -0.268049,0.23827 -0.536101,0.47653 -0.80415,0.7148 -0.05957,0.23827 -0.119134,0.47653 -0.1787,0.7148 0.02978,0.29784 0.05957,0.59567 0.08935,0.89351 0.506317,0.62545 1.012634,1.2509 1.518951,1.87635 2.531589,-0.0893 5.063178,-0.1787 7.594767,-0.26805 0.476533,-0.8935 0.953069,-1.78701 1.429602,-2.68051 -0.02978,-0.20848 -0.05957,-0.41697 -0.08935,-0.62545 -0.506317,-0.41697 -1.012634,-0.83393 -1.518954,-1.2509 -1.995485,-0.44675 -3.990972,-0.8935 -5.98646,-1.34026 -0.327618,0.0298 -0.655235,0.0596 -0.982853,0.0894 -0.05957,0.0893 -0.119134,0.1787 -0.1787,0.26805 0.05957,-0.43684 0.119132,-0.87369 0.1787,-1.31053" />
      <path
         style="fill:#000080;fill-rule:evenodd;stroke:#000000;stroke-width:0.499999;stroke-linejoin:bevel;stroke-dasharray:none;stroke-opacity:1"
         d="m 91.986012,141.66471 c -0.491423,-0.0447 -1.47428,-0.13403 -2.233756,0 -0.759476,0.13402 -1.295579,0.49143 -1.57852,0.80415 -0.282941,0.31273 -0.312725,0.58078 0.01489,1.22112 0.327618,0.64034 1.012638,1.65298 1.563631,2.23375 0.550992,0.58078 0.96796,0.7297 2.159296,0.83394 1.191336,0.10425 3.157038,0.16381 4.675991,0.0745 1.518953,-0.0893 2.591156,-0.32762 3.380413,-0.61056 0.789261,-0.28295 1.295581,-0.61057 1.504061,-1.31047 0.20848,-0.69991 0.11913,-1.77211 0,-2.38267 -0.11913,-0.61056 -0.26805,-0.75948 -0.40209,-0.87862 -0.13404,-0.11914 -0.25315,-0.20847 -0.38717,-0.25315 -0.13402,-0.0447 -0.28294,-0.0447 -0.59567,-0.0298 -0.312723,0.0149 -0.789258,0.0446 -1.191325,0.10421 -0.402067,0.0596 -0.729698,0.14891 -1.250907,0.25315 -0.52121,0.10425 -1.23601,0.22338 -1.682767,0.31274 -0.446757,0.0893 -0.625445,0.14891 -0.908391,0.14891 -0.282946,0 -0.670125,-0.0596 -1.042419,-0.11913 -0.372295,-0.0596 -0.729692,-0.11914 -0.982856,-0.17871 -0.253164,-0.0596 -0.402068,-0.11913 -0.476527,-0.14892 -0.07446,-0.0298 -0.07446,-0.0297 -0.565886,-0.0744 z"
         id="path13"
         inkscape:path-effect="#path-effect13"
         inkscape:original-d="m 92.477435,141.70938 c -0.98285,-0.0893 -1.965703,-0.1787 -2.948556,-0.26805 -0.536101,0.3574 -1.0722,0.71481 -1.608301,1.07221 -0.02979,0.26805 -0.05957,0.5361 -0.08935,0.80415 0.68502,1.01263 1.370036,2.02527 2.055056,3.0379 0.416967,0.14892 0.833935,0.29784 1.250902,0.44676 1.965704,0.0596 3.931407,0.11913 5.897113,0.1787 1.0722,-0.23827 2.144403,-0.47654 3.216601,-0.71481 0.50632,-0.32761 1.01264,-0.65523 1.51895,-0.98285 -0.0894,-1.0722 -0.1787,-2.1444 -0.26805,-3.2166 -0.14891,-0.14892 -0.29783,-0.29784 -0.44675,-0.44676 -0.11913,-0.0894 -0.23826,-0.1787 -0.3574,-0.26804 -0.14891,0 -0.29783,0 -0.44675,0 -0.476531,0.0298 -0.953064,0.0596 -1.429597,0.0893 -0.327618,0.0893 -0.655236,0.1787 -0.982853,0.26805 -0.714801,0.11914 -1.429602,0.23827 -2.144406,0.35741 -0.1787,0.0596 -0.357399,0.11913 -0.536099,0.1787 -0.387186,-0.0596 -0.774369,-0.11914 -1.161552,-0.1787 -0.357402,-0.0596 -0.714804,-0.11914 -1.072203,-0.17871 -0.148918,-0.0596 -0.297834,-0.11913 -0.446752,-0.1787 z" />
      <path
         style="fill:#ffffff;fill-rule:evenodd;stroke:#000000;stroke-width:0.499999;stroke-linejoin:bevel;stroke-dasharray:none;stroke-opacity:1"
         d="m 94.443139,143.3517 c -0.25316,0.12269 -0.50632,0.24537 -0.677581,0.33651 -0.17126,0.0911 -0.260598,0.15069 -0.342509,0.21026 -0.08191,0.0596 -0.156357,0.11913 -0.208477,0.20848 -0.05212,0.0893 -0.0819,0.20848 -0.09679,0.29785 -0.01489,0.0894 -0.01489,0.1489 0.0075,0.20103 0.02234,0.0521 0.06698,0.0968 0.111678,0.15636 0.0447,0.0596 0.08935,0.13402 0.18615,0.23826 0.0968,0.10424 0.245716,0.23827 0.38719,0.32016 0.141474,0.0819 0.275506,0.11167 0.416973,0.14889 0.141467,0.0372 0.29039,0.0819 0.558435,0.0819 0.268046,-1e-5 0.655231,-0.0447 0.953064,-0.23083 0.297834,-0.18615 0.506314,-0.51376 0.610557,-0.69992 0.104243,-0.18616 0.104243,-0.23076 0.08935,-0.26802 -0.01489,-0.0373 -0.04467,-0.0671 -0.08191,-0.10431 -0.03724,-0.0372 -0.08192,-0.0819 -0.134041,-0.14149 -0.05212,-0.0596 -0.111665,-0.134 -0.171233,-0.17868 -0.05957,-0.0447 -0.119132,-0.0596 -0.163805,-0.0745 -0.04467,-0.0149 -0.07446,-0.0298 -0.119138,-0.0447 -0.04467,-0.0149 -0.104239,-0.0298 -0.148914,-0.0447 -0.04468,-0.0149 -0.07446,-0.0298 -0.111689,-0.0373 -0.03722,-0.007 -0.0819,-0.007 -0.163809,-0.0149 -0.0819,-0.007 -0.201038,-0.0223 -0.320172,-0.0298 -0.119134,-0.007 -0.238265,-0.007 -0.305282,-0.007 -0.06702,0 -0.0819,0 -0.0635,0 0.01839,0 0.07007,0 0.12175,0"
         id="path14"
         inkscape:path-effect="#path-effect14"
         inkscape:original-d="m 94.443139,143.3517 c -0.253159,0.12269 -0.506318,0.24538 -0.759476,0.36806 -0.08935,0.0596 -0.1787,0.11914 -0.26805,0.1787 -0.07446,0.0596 -0.148918,0.11914 -0.223377,0.1787 -0.02978,0.11914 -0.05956,0.23827 -0.08935,0.35741 0,0.0596 0,0.11913 0,0.1787 0.04467,0.0447 0.08935,0.0893 0.134024,0.13402 0.04467,0.0745 0.08935,0.14892 0.134028,0.22338 0.148915,0.13402 0.297833,0.26805 0.446749,0.40207 0.134027,0.0298 0.268052,0.0596 0.402076,0.0893 0.148918,0.0447 0.297834,0.0894 0.446752,0.13403 0.387183,-0.0447 0.774366,-0.0894 1.161552,-0.13403 0.208484,-0.32762 0.416968,-0.65523 0.625452,-0.98285 0,-0.0447 0,-0.0893 0,-0.13402 -0.02979,-0.0298 -0.05957,-0.0596 -0.08935,-0.0894 -0.04468,-0.0447 -0.08935,-0.0894 -0.134028,-0.13402 -0.05957,-0.0745 -0.119133,-0.14892 -0.178699,-0.22338 -0.05957,-0.0149 -0.119134,-0.0298 -0.1787,-0.0447 -0.02978,-0.0149 -0.05957,-0.0298 -0.08935,-0.0447 -0.05957,-0.0149 -0.119134,-0.0298 -0.178703,-0.0447 -0.02978,-0.0149 -0.05957,-0.0298 -0.08935,-0.0447 -0.04467,0 -0.08935,0 -0.134024,0 -0.119134,-0.0149 -0.238268,-0.0298 -0.357402,-0.0447 -0.119134,0 -0.238265,0 -0.357399,0 -0.0149,0 -0.02978,0 -0.04467,0 0.05168,0 0.103357,0 0.155035,0" />
      <path
         style="fill:#ffffff;fill-rule:evenodd;stroke:#000000;stroke-width:0.499999;stroke-linejoin:bevel;stroke-dasharray:none;stroke-opacity:1"
         d="m 53.087798,139.67479 c -0.108848,-0.0813 -0.217677,-0.16256 -0.331664,-0.2032 -0.113986,-0.0406 -0.23312,-0.0406 -0.396929,0.0785 -0.163809,0.11913 -0.372293,0.3574 -0.469089,0.54355 -0.0968,0.18614 -0.08191,0.32017 -0.0074,0.41697 0.07446,0.0968 0.20848,0.15635 0.394628,0.20848 0.186147,0.0521 0.424398,0.0968 0.595659,0.11168 0.17126,0.0149 0.275501,-1e-5 0.469093,-0.0596 0.193591,-0.0596 0.476534,-0.16381 0.632905,-0.23082 0.15637,-0.067 0.186169,-0.0968 0.201045,-0.12656 0.01488,-0.0298 0.01488,-0.0596 0.05955,-0.15637 0.04468,-0.0968 0.134026,-0.26062 0.119131,-0.36486 -0.0149,-0.10425 -0.134006,-0.14891 -0.230816,-0.18614 -0.09681,-0.0372 -0.17128,-0.067 -0.297851,-0.0968 -0.12657,-0.0298 -0.305276,-0.0595 -0.43185,-0.0819 -0.126574,-0.0223 -0.201032,-0.0372 -0.253151,-0.0447 -0.05212,-0.007 -0.08191,-0.007 -0.10425,-0.007 -0.02234,0 -0.03722,0 -0.02747,0.0332 0.0097,0.0332 0.04413,0.0996 0.0785,0.16596"
         id="path15"
         inkscape:path-effect="#path-effect15"
         inkscape:original-d="m 53.087798,139.67479 c -0.108839,-0.0813 -0.217677,-0.16256 -0.326516,-0.24384 -0.119134,0 -0.238268,0 -0.357402,0 -0.208484,0.23827 -0.416968,0.47654 -0.625451,0.71481 0.0149,0.13402 0.02978,0.26805 0.04467,0.40207 0.134025,0.0596 0.268052,0.11914 0.402077,0.1787 0.238268,0.0447 0.476533,0.0893 0.714801,0.13403 0.104243,-0.0149 0.208484,-0.0298 0.312727,-0.0447 0.28294,-0.10424 0.565883,-0.20848 0.848826,-0.31272 0.02978,-0.0298 0.05956,-0.0596 0.08935,-0.0893 0,-0.0298 0,-0.0596 0,-0.0894 0.08935,-0.16381 0.1787,-0.32762 0.268052,-0.49143 -0.119133,-0.0447 -0.238267,-0.0893 -0.357401,-0.13402 -0.07446,-0.0298 -0.148918,-0.0596 -0.223375,-0.0893 -0.178702,-0.0298 -0.357402,-0.0596 -0.536101,-0.0893 -0.07446,-0.0149 -0.148918,-0.0298 -0.223377,-0.0447 -0.02978,0 -0.05957,0 -0.08935,0 -0.0149,0 -0.02978,0 -0.04467,0 0.03438,0.0664 0.06876,0.13278 0.103142,0.19916" />
      <path
         style="fill:#ff6600;fill-rule:evenodd;stroke:#000000;stroke-width:0.499999;stroke-linejoin:bevel;stroke-dasharray:none;stroke-opacity:1"
         d="m 75.322202,129.64711 c 0.685017,0.62545 1.370036,1.2509 1.84657,1.57853 0.476535,0.32762 0.744584,0.35742 1.861463,-0.11911 1.116879,-0.47652 3.082581,-1.45938 4.080331,-1.93591 0.99775,-0.47654 1.027554,-0.44675 0.953078,-0.11916 -0.07448,0.32759 -0.253175,0.95304 0.01488,1.34022 0.268051,0.38719 0.982852,0.5361 1.921028,0.44675 0.938175,-0.0893 2.099728,-0.41696 2.933664,-0.65523 0.833936,-0.23827 1.340251,-0.38718 1.965703,-0.46164 0.625452,-0.0745 1.370037,-0.0745 2.174189,0.0298 0.804151,0.10424 1.667872,0.31273 2.263532,0.46164 0.59566,0.14892 0.923291,0.23827 1.295585,0.43186 0.372294,0.1936 0.78926,0.49143 0.997743,0.65524 0.208483,0.16382 0.208483,0.19362 0.26805,0.20847 0.05957,0.0148 0.1787,0.0148 0.297834,0.0148"
         id="path16"
         inkscape:path-effect="#path-effect16"
         inkscape:original-d="m 75.322202,129.64711 c 0.685016,0.62545 1.370036,1.2509 2.055053,1.87635 0.268052,0.0298 0.536101,0.0596 0.804153,0.0894 1.965703,-0.98286 3.931407,-1.96571 5.89711,-2.94856 0.02978,0.0298 0.05957,0.0596 0.08935,0.0893 -0.1787,0.62545 -0.357399,1.2509 -0.536099,1.87635 0.714801,0.14892 1.429602,0.29784 2.144403,0.44675 1.161553,-0.32761 2.323105,-0.65523 3.484658,-0.98285 0.506317,-0.14892 1.012634,-0.29783 1.518951,-0.44675 0.744586,0 1.489171,0 2.233756,0 0.863719,0.20848 1.727438,0.41697 2.591154,0.62545 0.327618,0.0893 0.655236,0.1787 0.982853,0.26805 0.416968,0.29784 0.833935,0.59567 1.250903,0.8935 0,0.0298 0,0.0596 0,0.0893 0.119134,0 0.238267,0 0.357401,0" />
      <path
         style="fill:#ff6600;fill-rule:evenodd;stroke:#000000;stroke-width:0.499999;stroke-linejoin:bevel;stroke-dasharray:none;stroke-opacity:1"
         d="m 65.404332,130.16676 c -1.191334,-1.12628 -2.382674,-2.25257 -3.618684,-2.96463 -1.236011,-0.71206 -2.516695,-1.00989 -3.439981,-0.90565 -0.923285,0.10424 -1.48917,0.61056 -1.846569,1.02753 -0.357399,0.41696 -0.506317,0.74458 -0.610559,1.01263 -0.104242,0.26805 -0.163808,0.47653 -0.193592,0.61058 -0.02978,0.13404 -0.02978,0.19357 -0.01489,-0.0894 0.01489,-0.28294 0.04467,-0.90839 -0.550994,-1.22112 -0.595669,-0.31273 -1.816787,-0.31273 -2.725181,-0.23827 -0.908394,0.0745 -1.504061,0.22338 -2.531587,0.43187 -1.027527,0.20848 -2.486913,0.47653 -3.544226,0.64034 -1.057312,0.16381 -1.712544,0.22337 -2.516694,0.29783 -0.804149,0.0745 -1.757221,0.16381 -2.30822,0.23827 -0.550999,0.0745 -0.699905,0.13402 -0.848821,0.19359"
         id="path17"
         inkscape:path-effect="#path-effect17"
         inkscape:original-d="m 65.404332,130.16676 c -1.191336,-1.12628 -2.382673,-2.25257 -3.574007,-3.37885 -1.280687,-0.29784 -2.561373,-0.59567 -3.84206,-0.89351 -0.565882,0.50632 -1.131768,1.01264 -1.697651,1.51896 -0.148918,0.32761 -0.297836,0.65523 -0.446751,0.98285 -0.05957,0.20848 -0.119134,0.41696 -0.1787,0.62545 0,0.0596 0,0.11913 0,0.1787 0.02978,-0.62545 0.05957,-1.2509 0.08935,-1.87636 -1.221121,0 -2.442239,0 -3.663358,0 -0.595669,0.14892 -1.191336,0.29784 -1.787003,0.44676 -1.459386,0.26805 -2.918772,0.5361 -4.378159,0.80415 -0.655235,0.0596 -1.31047,0.11913 -1.965706,0.1787 -0.953068,0.0893 -1.906135,0.1787 -2.859203,0.26805 -0.148919,0.0596 -0.297837,0.11913 -0.446752,0.1787" />
    </g>
  </g>
</svg>
